# xmcd
#
# Track frame offsets: 
#        150
#        10534
#        19329
#        21451
#        30259
#        40104
#        49542
#        55715
#        63367
#        69332
#        75285
#        83619
#        89801
#        92098
#        97160
#        104665
#        109847
#        117973
#        123653
#        130180
#        140351
#        156218
#        161479
#        167377
#        174042
#        179898
#        183816
#        190777
#        193861
#        203803
#        211999
#        217452
#        222104
#        226721
#        232858
#        240552
#        246681
#        249105
#        254248
#        261025
#        261921
#        263741
#        268734
#        274527
#        279904
#        289109
#        290639
#        302113
#
# Disc length: 4285 seconds
#
# Revision: 0
# Processed by: cddbd v1.5.2PL0 Copyright (c) Steve Scherf et al.
# Submitted via: ExactAudioCopy v0.95b4
#
DISCID=b410bb30
DTITLE=Various Artist - Deebuzz Soundsystem - Volle Breitseite
DYEAR=2002
DGENRE=Dance Hall
TTITLE0=Nosliw/Fleht and weint
TTITLE1=Seeed feat. Anthony B/Waterpumpee
TTITLE2=Fingamann/Deebuzz loves you
TTITLE3=Nosliw/Musik
TTITLE4=Nikitaman/Stell dir vor es ist Krieg
TTITLE5=Natty Flo/Roots
TTITLE6=Natty Flo feat. Skarra Mucci/Wochenend
TTITLE7=Nikitaman/Mein Weed
TTITLE8=Mono/Mörderplates
TTITLE9=Fingamann/Imagine
TTITLE10=Mono/Lasst euch gehn
TTITLE11=Nosliw and Natty Flo/Deebuzz Sound
TTITLE12=Natty Flo/Nix für mich
TTITLE13=Natty Flo and Skarra Mucci/Diss Deebuzz nicht
TTITLE14=Nosliw/Spart euch die Kraft
TTITLE15=Nikitaman/Ah...loco
TTITLE16=Nikitaman/Bujaca
TTITLE17=Mono/Freak
TTITLE18=Mizta Nutty/Hände raus
TTITLE19=Tolga, Mucci, Nik, Nosliw, Flo/Medley
TTITLE20=Mono and Nikitaman - Scharademann/M and N - Wo seid ihr Leute
TTITLE21=Ragga Fränkie feat. Dr. Ring Ding/Hardcore
TTITLE22=Natty Flo/Wir gehn's an
TTITLE23=Nosliw and Natty Flo/Boah
TTITLE24=Natty Flo and Nosliw/Mach sie klar
TTITLE25=Clueso/Stumme Königin
TTITLE26=Natty Flo/Gut brennbar
TTITLE27=Nikitaman/Mein Weed
TTITLE28=Nosliw and Natty Flo/So muss es sein
TTITLE29=Nosliw/Oh my Gal
TTITLE30=Bruce Barron/Die ganze Stadt
TTITLE31=Lazy Youth/Zuviel Polizei
TTITLE32=Natty Flo/Kreuz und quer
TTITLE33=Tolga feat. Skarra Mucci/Heat of da Night
TTITLE34=Fingamann/Killa Sound
TTITLE35=Gentleman/Runaway
TTITLE36=Nikitaman/Stell dir vor es ist Krieg
TTITLE37=Mono/Zivicops
TTITLE38=Lobsta/Babylon Threat
TTITLE39=Nattyflo/Nach vorn
TTITLE40=Skarra Mucci/No more Babylon
TTITLE41=Benji/Ganja smoke
TTITLE42=Seeed/New dubby conquerers 2
TTITLE43=Samy Deluxe/Grüne Brille
TTITLE44=Mizta Nutty/Durchblicken
TTITLE45=Fingaman/Macarena
TTITLE46=Gentleman/Jah inna yuh life (DJ Freeze Rmx)
TTITLE47=W-Indie/Hardcore Dub Mix (Bonus Track)
EXTD=
EXTT0=
EXTT1=
EXTT2=
EXTT3=
EXTT4=
EXTT5=
EXTT6=
EXTT7=
EXTT8=
EXTT9=
EXTT10=
EXTT11=
EXTT12=
EXTT13=
EXTT14=
EXTT15=
EXTT16=
EXTT17=
EXTT18=
EXTT19=
EXTT20=
EXTT21=
EXTT22=
EXTT23=
EXTT24=
EXTT25=
EXTT26=
EXTT27=
EXTT28=
EXTT29=
EXTT30=
EXTT31=
EXTT32=
EXTT33=
EXTT34=
EXTT35=
EXTT36=
EXTT37=
EXTT38=
EXTT39=
EXTT40=
EXTT41=
EXTT42=
EXTT43=
EXTT44=
EXTT45=
EXTT46=
EXTT47=
PLAYORDER=
